<svg xmlns="http://www.w3.org/2000/svg" viewBox="0 0 256 256" role="img" aria-label="ZEKiQ Owner">
  <defs>
    <linearGradient id="obg" x1="0%" y1="0%" x2="100%" y2="100%">
      <stop offset="0%" stop-color="#121110"/>
      <stop offset="48%" stop-color="#1a1714"/>
      <stop offset="100%" stop-color="#252019"/>
    </linearGradient>
    <linearGradient id="oring" x1="0%" y1="0%" x2="100%" y2="100%">
      <stop offset="0%" stop-color="#e8dcc0" stop-opacity="0.55"/>
      <stop offset="50%" stop-color="#c9a227" stop-opacity="0.85"/>
      <stop offset="100%" stop-color="#8a6f2e" stop-opacity="0.65"/>
    </linearGradient>
    <linearGradient id="oz" x1="0%" y1="0%" x2="100%" y2="100%">
      <stop offset="0%" stop-color="#faf6eb"/>
      <stop offset="38%" stop-color="#e8d5a3"/>
      <stop offset="72%" stop-color="#c9a227"/>
      <stop offset="100%" stop-color="#9a7b2f"/>
    </linearGradient>
    <linearGradient id="oshine" x1="0%" y1="0%" x2="0%" y2="100%">
      <stop offset="0%" stop-color="#fff" stop-opacity="0.1"/>
      <stop offset="100%" stop-color="#fff" stop-opacity="0"/>
    </linearGradient>
  </defs>
  <rect width="256" height="256" rx="58" fill="url(#obg)"/>
  <rect x="7" y="7" width="242" height="242" rx="52" fill="none" stroke="url(#oring)" stroke-width="3"/>
  <rect x="16" y="16" width="224" height="96" rx="38" fill="url(#oshine)"/>
  <path fill="url(#oz)" d="M54 62h148L88 126h114v28H54l92-62H54V62z"/>
  <g transform="translate(52 168)">
    <rect width="152" height="72" rx="16" fill="#141210" stroke="url(#oring)" stroke-width="2"/>
    <rect x="24" y="44" width="18" height="16" rx="4" fill="#6b5c3a" opacity="0.85"/>
    <rect x="50" y="34" width="18" height="26" rx="4" fill="#8a7340"/>
    <rect x="76" y="26" width="18" height="34" rx="4" fill="#a6894a"/>
    <rect x="102" y="18" width="18" height="42" rx="4" fill="#c9a227"/>
    <path d="M33 38 L59 30 L85 36 L111 22" fill="none" stroke="#e8dcc0" stroke-width="2.5" stroke-linecap="round" stroke-linejoin="round" opacity="0.75"/>
  </g>
</svg>
