<svg xmlns="http://www.w3.org/2000/svg" width="600" height="600" viewBox="0 0 37 37" shape-rendering="crispEdges"><path fill="#ffffff" d="M0 0h37v37H0z"/><path stroke="#231536" d="M2 2.5h7m1 0h1m4 0h2m1 0h4m3 0h1m2 0h7M2 3.5h1m5 0h1m1 0h2m1 0h1m1 0h1m2 0h1m1 0h1m1 0h1m2 0h2m1 0h1m5 0h1M2 4.5h1m1 0h3m1 0h1m2 0h1m1 0h1m4 0h2m8 0h1m1 0h3m1 0h1M2 5.5h1m1 0h3m1 0h1m1 0h3m1 0h1m1 0h1m1 0h1m3 0h1m1 0h3m1 0h1m1 0h3m1 0h1M2 6.5h1m1 0h3m1 0h1m3 0h1m3 0h1m5 0h1m1 0h1m1 0h1m1 0h1m1 0h3m1 0h1M2 7.5h1m5 0h1m2 0h1m2 0h3m3 0h4m2 0h1m1 0h1m5 0h1M2 8.5h7m1 0h1m1 0h1m1 0h1m1 0h1m1 0h1m1 0h1m1 0h1m1 0h1m1 0h1m1 0h7M10 9.5h1m2 0h2m1 0h1m2 0h2m1 0h1M2 10.5h1m1 0h2m1 0h3m1 0h1m1 0h1m2 0h1m1 0h6m4 0h1m2 0h1m1 0h2M2 11.5h6m1 0h1m1 0h4m3 0h1m1 0h6m2 0h2m1 0h2m1 0h1M2 12.5h2m1 0h1m2 0h1m1 0h1m2 0h1m2 0h1m1 0h2m4 0h8m2 0h1M2 13.5h1m3 0h1m4 0h2m1 0h4m2 0h2m2 0h1m4 0h1m1 0h1m1 0h2M5 14.5h6m1 0h1m1 0h1m2 0h1m2 0h1m3 0h1m2 0h1m1 0h3M3 15.5h3m6 0h1m2 0h1m2 0h1m1 0h1m5 0h1m2 0h1m2 0h2M5 16.5h1m1 0h2m3 0h4m1 0h2m1 0h1m2 0h2m1 0h1m1 0h1m3 0h1M2 17.5h2m7 0h1m1 0h1m1 0h2m1 0h1m1 0h5m2 0h6M2 18.5h1m1 0h2m1 0h4m3 0h4m2 0h5m2 0h2m1 0h3M3 19.5h1m1 0h3m1 0h6m2 0h1m1 0h1m2 0h1m1 0h5m1 0h2m1 0h2M4 20.5h1m1 0h3m3 0h1m1 0h1m1 0h2m1 0h1m3 0h2m1 0h1m1 0h3m1 0h2M2 21.5h1m1 0h1m1 0h1m2 0h2m1 0h2m1 0h1m1 0h2m5 0h4m2 0h1m2 0h2M2 22.5h3m1 0h1m1 0h1m6 0h1m1 0h1m2 0h2m1 0h2m4 0h1m1 0h2M2 23.5h1m1 0h4m4 0h2m1 0h3m2 0h1m4 0h2m1 0h1m5 0h1M4 24.5h3m1 0h1m1 0h3m3 0h1m1 0h1m1 0h1m2 0h1m1 0h3m1 0h2m2 0h2M3 25.5h1m5 0h1m8 0h1m1 0h1m1 0h1m5 0h2m1 0h1m1 0h2M2 26.5h1m3 0h5m1 0h1m2 0h3m1 0h1m1 0h1m2 0h1m1 0h5M10 27.5h1m2 0h3m1 0h1m1 0h3m1 0h1m2 0h1m3 0h2m1 0h1M2 28.5h7m1 0h2m1 0h1m1 0h1m5 0h1m1 0h1m1 0h2m1 0h1m1 0h1M2 29.5h1m5 0h1m1 0h4m1 0h4m2 0h6m3 0h3M2 30.5h1m1 0h3m1 0h1m2 0h2m2 0h1m1 0h1m1 0h1m1 0h10m1 0h1M2 31.5h1m1 0h3m1 0h1m1 0h1m2 0h2m5 0h1m3 0h3m2 0h1m1 0h2m1 0h1M2 32.5h1m1 0h3m1 0h1m1 0h2m2 0h3m5 0h2m2 0h4m1 0h1M2 33.5h1m5 0h1m2 0h1m3 0h1m1 0h3m1 0h1m2 0h1m1 0h1m2 0h3m2 0h1M2 34.5h7m1 0h1m2 0h1m1 0h1m1 0h5m1 0h1m1 0h1m4 0h1m1 0h1"/></svg>
